<svg width="1024" height="1024" viewBox="0 0 1024 1024" fill="none" xmlns="http://www.w3.org/2000/svg">
<path d="M527.259 307.474C538.197 289.121 565.935 237.577 588.594 193.062C611.644 148.156 630.787 112.232 631.177 113.012C631.568 113.793 638.6 163.385 646.414 223.52C654.227 283.654 663.603 345.351 667.119 360.189C671.807 381.275 677.277 392.209 689.388 407.047C698.373 417.981 712.437 431.257 721.032 437.114C729.236 442.581 755.021 456.639 778.461 468.353C801.511 479.677 820.263 489.83 820.263 491.001C820.263 492.173 799.557 503.106 774.554 515.211C741.347 531.221 717.516 546.06 689.388 569.098C667.901 586.279 647.195 604.632 643.679 609.318C640.163 614.004 619.848 653.052 598.752 696.006C577.265 738.959 545.229 806.122 526.868 845.171C508.897 883.828 492.879 913.896 491.707 911.553C490.535 908.819 487.41 887.733 484.675 863.914C481.94 840.094 475.69 792.065 470.611 756.531C465.532 720.997 456.937 677.653 451.468 659.69C445.217 640.557 437.013 622.985 430.372 615.956C424.512 609.709 405.759 596.042 388.57 585.889C371.38 575.736 322.546 552.307 279.963 533.955C237.77 515.602 203 499.982 203 498.811C203 497.64 224.487 487.487 251.053 475.772C277.228 464.058 331.922 441.019 372.943 424.619L372.944 424.618C413.574 407.828 454.203 391.037 462.797 386.351C471.392 382.056 485.066 369.951 492.879 359.408C500.693 349.255 516.32 325.826 527.259 307.474Z" fill="url(#paint0_linear_186_20)"/>
<defs>
<linearGradient id="paint0_linear_186_20" x1="511.632" y1="113" x2="511.632" y2="911.681" gradientUnits="userSpaceOnUse">
<stop stop-color="#FFFE0F"/>
<stop offset="1" stop-color="#F5AA1D"/>
</linearGradient>
</defs>
</svg>
